<?xml version="1.0" encoding="UTF-8"?>
<svg version="1.1" xmlns="http://www.w3.org/2000/svg" width="255" height="255">
<path d="M0 0 C84.15 0 168.3 0 255 0 C255 84.15 255 168.3 255 255 C170.85 255 86.7 255 0 255 C0 170.85 0 86.7 0 0 Z " fill="#FEFEFE" transform="translate(0,0)"/>
<path d="M0 0 C3.61810764 2.75618967 6.83391915 5.7399353 10 9 C10.56074219 9.54011719 11.12148437 10.08023438 11.69921875 10.63671875 C18.35879257 17.57595971 23.06797358 27.51027643 24 37 C27.63 35.68 31.26 34.36 35 33 C31.7 31.02 28.4 29.04 25 27 C31.17123216 20.82876784 35.87681474 19.813658 44.375 19.625 C56.02963234 19.90249125 64.79732129 23.04286623 73.26953125 31.1796875 C77.37748268 35.57630578 79.01799446 38.05398338 81 44 C75.39 47.3 69.78 50.6 64 54 C64.98586151 57.94344602 65.52915964 58.86464651 68.0625 61.75 C71.44047107 65.951526 73.91496134 70.32439457 76.3125 75.125 C76.64967041 75.79370117 76.98684082 76.46240234 77.33422852 77.15136719 C82.19614425 87.11835584 84.06023529 98.01881345 80.875 108.875 C77.27194821 117.89100866 71.39221418 122.86480972 62.86850834 127.04543304 C59.24334704 128.25179495 55.85289761 128.28977571 52.07652283 128.28088379 C51.28442478 128.28682603 50.49232674 128.29276828 49.67622572 128.29889059 C47.02491152 128.31621835 44.37377842 128.31927711 41.72241211 128.32226562 C39.81998307 128.33152548 37.91755774 128.34157528 36.01513672 128.35235596 C30.8474379 128.37857934 25.67979103 128.39148968 20.51203609 128.40037727 C17.28047856 128.40624431 14.04893514 128.4144551 10.81738472 128.42338562 C0.69822314 128.45073254 -9.42090609 128.47006582 -19.54010206 128.4777894 C-31.20511067 128.48674256 -42.8696496 128.52180165 -54.53451544 128.57979059 C-63.56064113 128.62309711 -72.58663505 128.64320192 -81.61286348 128.64587164 C-86.99904633 128.64796305 -92.38478759 128.65967653 -97.77086067 128.69551086 C-102.84277174 128.72859812 -107.91391236 128.73272367 -112.98589325 128.71523285 C-114.84015665 128.7136986 -116.69446252 128.72229178 -118.54862022 128.74214935 C-130.40373075 128.86159527 -140.22732178 128.20414908 -149.45021152 119.75547028 C-157.60185972 111.28296475 -160.40298181 102.96407349 -160.2734375 91.3828125 C-159.56497085 82.61806799 -155.17679216 75.14163016 -149 69 C-143.86167174 65.12386014 -139.42250228 62.82029057 -133 62 C-133.05800781 61.02160156 -133.11601562 60.04320312 -133.17578125 59.03515625 C-133.54183602 48.39865063 -131.96341285 42.11423992 -124.6875 34.1875 C-118.19321104 28.06268919 -110.8753125 25.66396737 -102.07421875 25.69921875 C-97.04623731 26.19115594 -92.6068586 28.00399163 -88 30 C-87.5359375 28.1746875 -87.5359375 28.1746875 -87.0625 26.3125 C-82.35615488 12.41236443 -71.71608925 2.35317659 -59 -4.375 C-38.70636021 -13.72930259 -18.95751285 -11.37890111 0 0 Z " fill="#F38020" transform="translate(165,68)"/>
<path d="M0 0 C6.77480712 4.83742889 12.06102388 10.28189759 14.375 18.375 C13.61823975 18.81368408 13.61823975 18.81368408 12.84619141 19.26123047 C10.56224699 20.58761238 8.28110626 21.91874346 6 23.25 C5.2059375 23.71019531 4.411875 24.17039062 3.59375 24.64453125 C2.83320313 25.08925781 2.07265625 25.53398438 1.2890625 25.9921875 C0.5873291 26.40065918 -0.1144043 26.80913086 -0.83740234 27.22998047 C-2.77177145 28.37908052 -2.77177145 28.37908052 -4.625 30.375 C-7.77404376 27.57584999 -9.7930804 25.30404397 -11.5 21.4375 C-13.57101583 16.97424956 -16.55946758 14.10107626 -20.625 11.375 C-23.63278521 10.37240493 -26.16320647 10.07185358 -29.3125 9.8125 C-30.30636719 9.72871094 -31.30023438 9.64492187 -32.32421875 9.55859375 C-33.08347656 9.49800781 -33.84273437 9.43742187 -34.625 9.375 C-33.635 8.715 -32.645 8.055 -31.625 7.375 C-34.925 5.395 -38.225 3.415 -41.625 1.375 C-30.61675707 -9.63324293 -12.60571783 -7.71778642 0 0 Z " fill="#F9AE42" transform="translate(231.625,93.625)"/>
</svg>
